<?xml version="1.0" encoding="utf-8"?>
<svg width="139" height="139" viewBox="0 0 139 139" fill="none" version="1.1" id="svg22" xmlns="http://www.w3.org/2000/svg">
  <path d="M 70 5.57 L 107.123 42.693 C 127.626 63.196 127.626 96.437 107.123 116.939 C 86.62 137.442 53.379 137.442 32.877 116.939 C 12.374 96.437 12.374 63.196 32.877 42.693 L 70 5.57 Z M 70 22.07 L 41.127 50.943 C 25.18 66.89 25.18 92.743 41.127 108.69 C 49.106 116.669 59.566 120.656 70.025 120.65 L 70 22.07 Z" id="path2" clip-path="url(#clip0_1117_195656)" style="fill: rgb(255, 0, 0);"/>
  <path d="M 66.727 19.102 L 36.519 50.31 C 21.493 65.336 22.493 94.699 37.519 109.725 C 52.546 124.752 80.909 124.752 95.935 109.725 C 110.961 94.699 111.961 65.336 96.935 50.31 L 66.727 19.102 Z M 66.727 10.555 L 101.709 45.536 C 121.028 64.856 121.028 96.179 101.709 115.499 C 82.389 134.818 51.065 134.818 31.746 115.499 C 12.426 96.179 12.426 64.856 31.746 45.536 L 66.727 10.555 Z M 66.727 108.002 L 66.727 53.034 C 81.906 53.034 94.211 65.338 94.211 80.518 C 94.211 95.696 81.906 108.002 66.727 108.002 L 66.727 108.002 Z" fill="#0063cb" id="path4" clip-path="url(#clip0_1117_195656)"/>
  <defs id="defs20">
    <clipPath id="clip0_1117_195656">
      <rect width="140" height="140" fill="#ffffff" id="rect17" x="0" y="0"/>
    </clipPath>
  </defs>
</svg>